:FULLY-SPECIFIED
:DEGREES
2844
root 0.259081 15.6357 -2.37382 5070.93 -100.163 -5066.86
lowerback 2.9531 1.52863 -7.7521
upperback -1.9465 1.6682 0.00487181
thorax -3.91403 1.02716 4.24532
lowerneck -15.8106 2.14371 2.52181
upperneck 19.935 3.26932 -4.91755
head 8.98526 1.11865 -1.70468
rclavicle 1.43125e-014 -4.37326e-015
rhumerus -32.5424 -14.5153 -82.516
rradius 19.7502
rwrist 10.5831
rhand -30.203 -16.7848
rfingers 7.12502
rthumb -3.51354 -46.7356
lclavicle 1.43125e-014 -4.37326e-015
lhumerus -27.2732 -3.1125 90.7698
lradius 22.5811
lwrist 3.8725
lhand -31.1591 16.1968
lfingers 7.12502
lthumb -4.43681 46.1304
rfemur -29.1529 0.609735 15.3787
rtibia 53.4956
rfoot -20.505 -24.9224
rtoes -9.26262
lfemur -6.20905 -6.15583 -30.8972
ltibia 21.8843
lfoot -14.4475 7.57126
ltoes -8.83316
2845
root 0.28462 15.6269 -2.38426 5072.2 -100.089 -5068
lowerback 2.95821 1.46793 -7.92823
upperback -1.97026 1.57562 -0.0205867
thorax -3.93505 0.986419 4.32373
lowerneck -15.7768 2.13211 2.42902
upperneck 19.8123 3.26265 -4.86302
head 8.93415 1.11761 -1.67036
rclavicle 7.95139e-016 1.43125e-014
rhumerus -33.2256 -15.8508 -81.5113
rradius 18.8015
rwrist 12.152
rhand -29.882 -16.9548
rfingers 7.12502
rthumb -3.20349 -46.9105
lclavicle 7.95139e-016 1.43125e-014
lhumerus -26.5231 -3.84918 90.7576
lradius 23.7409
lwrist 4.90448
lhand -31.2048 16.2692
lfingers 7.12502
lthumb -4.48086 46.2018
rfemur -29.9075 0.78937 15.3632
rtibia 51.8695
rfoot -20.3748 -25.4163
rtoes -9.1628
lfemur -5.51858 -6.2094 -31.1007
ltibia 21.3117
lfoot -14.5003 7.37266
ltoes -8.81119
2846
root 0.308613 15.6354 -2.39286 5073.21 -100.064 -5068.85
lowerback 2.98242 1.42246 -8.06775
upperback -2.01607 1.50259 -0.0355927
thorax -3.99142 0.956662 4.39044
lowerneck -15.7549 2.12892 2.34658
upperneck 19.7144 3.2674 -4.81756
head 8.8946 1.12101 -1.63969
rclavicle -3.97569e-015 1.43125e-014
rhumerus -33.9756 -17.4381 -80.2948
rradius 17.7808
rwrist 14.2439
rhand -29.7105 -16.7897
rfingers 7.12502
rthumb -3.03785 -46.7478
lclavicle -3.97569e-015 1.43125e-014
lhumerus -25.8616 -4.57404 90.76
lradius 24.992
lwrist 6.09093
lhand -31.3897 16.1146
lfingers 7.12502
lthumb -4.65949 46.0434
rfemur -30.6679 1.21825 15.275
rtibia 50.2423
rfoot -20.6752 -25.4523
rtoes -7.87463
lfemur -4.7883 -6.24212 -31.2919
ltibia 20.628
lfoot -14.3893 7.29971
ltoes -9.48539
2847
root 0.333291 15.6397 -2.40381 5074.59 -100.005 -5070.09
lowerback 2.98688 1.38074 -8.25174
upperback -2.02956 1.43495 -0.0679563
thorax -4.00414 0.92793 4.46444
lowerneck -15.8216 2.10918 2.35406
upperneck 19.6569 3.2461 -4.8564
head 8.88709 1.10826 -1.65591
rclavicle -1.35174e-014 1.96797e-014
rhumerus -34.7935 -18.8676 -79.0766
rradius 16.9681
rwrist 16.0131
rhand -29.4722 -16.7378
rfingers 7.12502
rthumb -2.80774 -46.6991
lclavicle -1.35174e-014 1.96797e-014
lhumerus -25.1508 -5.38904 90.7572
lradius 26.2284
lwrist 7.20264
lhand -31.6456 16.0817
lfingers 7.12502
lthumb -4.90654 46.0049
rfemur -31.3295 1.60845 15.1486
rtibia 48.4722
rfoot -20.4088 -25.4766
rtoes -7.68408
lfemur -4.03216 -6.36008 -31.5047
ltibia 19.9048
lfoot -14.2679 7.19092
ltoes -9.83109
2848
root 0.358298 15.642 -2.41456 5075.77 -99.939 -5071.17
lowerback 3.02142 1.33283 -8.38895
upperback -2.01343 1.36119 -0.0801616
thorax -4.00056 0.894006 4.53356
lowerneck -15.8572 2.10815 2.28891
upperneck 19.554 3.25888 -4.85291
head 8.85786 1.11185 -1.64112
rclavicle -2.38542e-015 -3.77691e-015
rhumerus -35.5906 -20.5714 -77.6497
rradius 16.1349
rwrist 18.2613
rhand -29.2294 -16.6217
rfingers 7.12502
rthumb -2.57329 -46.586
lclavicle -2.38542e-015 -3.77691e-015
lhumerus -24.4543 -6.07283 90.6951
lradius 27.4801
lwrist 7.98053
lhand -31.6596 16.2051
lfingers 7.12502
lthumb -4.92009 46.1279
rfemur -31.8883 1.94721 15.0051
rtibia 46.6545
rfoot -20.0517 -25.0592
rtoes -7.50711
lfemur -3.14947 -6.35357 -31.677
ltibia 19.0385
lfoot -14.0381 6.96383
ltoes -9.97111
2849
root 0.378841 15.6507 -2.42552 5076.49 -99.9575 -5071.83
lowerback 3.01346 1.32478 -8.4882
upperback -1.96477 1.34817 -0.0978495
thorax -3.94574 0.886184 4.57244
lowerneck -15.8494 2.09435 2.2089
upperneck 19.4003 3.25647 -4.8494
head 8.80251 1.10879 -1.62556
rclavicle 9.54166e-015 2.8625e-014
rhumerus -36.4385 -22.2255 -76.1855
rradius 15.404
rwrist 20.3114
rhand -28.9956 -16.7448
rfingers 7.12502
rthumb -2.34745 -46.7117
lclavicle 9.54166e-015 2.8625e-014
lhumerus -23.7741 -6.84485 90.6498
lradius 28.7328
lwrist 9.17957
lhand -32.0902 15.9058
lfingers 7.12502
lthumb -5.33586 45.8186
rfemur -32.2905 2.38821 14.872
rtibia 44.7083
rfoot -19.7307 -24.2939
rtoes -7.28868
lfemur -2.18078 -6.38833 -31.8445
ltibia 18.13
lfoot -13.7999 6.84422
ltoes -10.5914
2850
root 0.404993 15.662 -2.43756 5077.45 -99.8177 -5072.67
lowerback 3.09185 1.27095 -8.54557
upperback -1.9792 1.26589 -0.0803294
thorax -3.9958 0.849616 4.62741
lowerneck -15.9036 2.09137 2.17215
upperneck 19.321 3.26542 -4.87193
head 8.78559 1.10923 -1.62499
rclavicle -1.43125e-014 -8.74653e-015
rhumerus -37.3052 -23.7557 -74.6715
rradius 14.6663
rwrist 22.1799
rhand -28.8483 -16.7767
rfingers 7.12502
rthumb -2.20516 -46.7451
lclavicle -1.43125e-014 -8.74653e-015
lhumerus -23.1669 -7.38762 90.5628
lradius 29.9874
lwrist 9.77842
lhand -32.1952 16.1078
lfingers 7.12502
lthumb -5.43715 46.018
rfemur -32.6471 2.90225 14.7054
rtibia 42.6513
rfoot -19.3033 -23.3956
rtoes -6.6871
lfemur -1.31101 -6.31086 -31.8815
ltibia 17.1777
lfoot -13.4193 6.46581
ltoes -10.9378
2851
root 0.432257 15.6703 -2.44953 5078.34 -99.7126 -5073.4
lowerback 3.08793 1.21262 -8.59537
upperback -1.9748 1.18719 -0.0611108
thorax -3.97941 0.811439 4.68138
lowerneck -15.8763 2.10664 2.10352
upperneck 19.1709 3.3042 -4.88779
head 8.73027 1.12434 -1.61306
rclavicle -3.73715e-014 -1.98785e-015
rhumerus -38.2564 -25.3835 -73.0475
rradius 14.0429
rwrist 24.3315
rhand -28.6901 -16.7596
rfingers 7.12502
rthumb -2.0524 -46.7295
lclavicle -3.73715e-014 -1.98785e-015
lhumerus -22.5215 -7.78655 90.4313
lradius 31.1402
lwrist 10.3641
lhand -32.5008 15.9071
lfingers 7.12502
lthumb -5.73222 45.8096
rfemur -32.9979 3.34487 14.5783
rtibia 40.468
rfoot -18.1006 -22.7522
rtoes -7.58473
lfemur -0.439922 -6.23533 -31.9173
ltibia 16.1705
lfoot -13.1133 6.06728
ltoes -11.1016
2852
root 0.452841 15.6864 -2.46203 5079 -99.6466 -5073.92
lowerback 3.0546 1.19836 -8.5872
upperback -1.98877 1.16998 -0.0827965
thorax -3.97191 0.802275 4.65564
lowerneck -15.8273 2.06835 2.05894
upperneck 19.0804 3.25382 -4.85719
head 8.68725 1.10342 -1.60094
rclavicle 1.66979e-014 -1.23246e-014
rhumerus -39.156 -26.8457 -71.5083
rradius 13.4511
rwrist 25.8639
rhand -28.3505 -17.0584
rfingers 7.12502
rthumb -1.72438 -47.0311
lclavicle 1.66979e-014 -1.23246e-014
lhumerus -22.0158 -8.35999 90.3073
lradius 32.3574
lwrist 10.9112
lhand -32.7187 15.8125
lfingers 7.12502
lthumb -5.94261 45.7092
rfemur -33.2236 3.84365 14.4305
rtibia 38.1984
rfoot -17.0892 -21.9652
rtoes -8.14542
lfemur 0.497571 -6.12667 -31.9442
ltibia 15.1065
lfoot -12.6066 5.74854
ltoes -11.7921
2853
root 0.474074 15.7057 -2.47455 5079.45 -99.5416 -5074.18
lowerback 2.97683 1.16469 -8.55239
upperback -1.99335 1.13574 -0.0528581
thorax -3.9272 0.783317 4.67108
lowerneck -15.8671 2.07704 2.06144
upperneck 19.0022 3.27836 -4.92471
head 8.67025 1.10933 -1.62039
rclavicle 1.11319e-014 -7.15625e-015
rhumerus -40.0863 -28.262 -69.9153
rradius 12.8932
rwrist 27.8942
rhand -28.2016 -17.4884
rfingers 7.12502
rthumb -1.58061 -47.4623
lclavicle 1.11319e-014 -7.15625e-015
lhumerus -21.4967 -8.85978 90.2235
lradius 33.4715
lwrist 11.6544
lhand -33.1316 15.4285
lfingers 7.12502
lthumb -6.34125 45.3135
rfemur -33.3783 4.46467 14.2823
rtibia 35.865
rfoot -16.2896 -21.1807
rtoes -7.68092
lfemur 1.38721 -6.2062 -31.9074
ltibia 14.0215
lfoot -12.1651 5.49023
ltoes -12.2464
2854
root 0.490815 15.7219 -2.48637 5080.19 -99.4612 -5074.77
lowerback 2.92154 1.13006 -8.5055
upperback -2.01066 1.09551 -0.0680216
thorax -3.90647 0.761414 4.63228
lowerneck -15.7389 2.07299 1.98684
upperneck 18.859 3.28252 -4.90135
head 8.59696 1.11288 -1.59913
rclavicle 0 -3.97569e-016
rhumerus -41.2854 -30.037 -67.8982
rradius 12.3223
rwrist 30.55
rhand -28.0387 -17.4817
rfingers 7.12502
rthumb -1.42334 -47.4567
lclavicle 0 -3.97569e-016
lhumerus -21.0781 -9.12871 90.0735
lradius 34.5844
lwrist 11.7444
lhand -33.2149 15.2538
lfingers 7.12502
lthumb -6.42164 45.1364
rfemur -33.4572 5.11656 14.0393
rtibia 33.5638
rfoot -15.4187 -20.6416
rtoes -8.16561
lfemur 2.41396 -6.15682 -31.9351
ltibia 12.799
lfoot -11.6049 5.12163
ltoes -12.8716
2855
root 0.508438 15.7361 -2.50023 5080.97 -99.3502 -5075.35
lowerback 2.78891 1.09604 -8.47655
upperback -2.02389 1.06418 -0.0580204
thorax -3.83992 0.742926 4.63044
lowerneck -15.8364 2.04766 1.95742
upperneck 18.8899 3.26094 -4.92425
head 8.6243 1.09647 -1.60432
rclavicle -1.59028e-014 5.96354e-015
rhumerus -42.4575 -31.82 -65.7863
rradius 11.7216
rwrist 33.208
rhand -27.9551 -17.4813
rfingers 7.12502
rthumb -1.3425 -47.4568
lclavicle -1.59028e-014 5.96354e-015
lhumerus -20.6065 -9.47883 89.9708
lradius 35.5762
lwrist 11.8395
lhand -33.3699 15.1277
lfingers 7.12502
lthumb -6.57134 45.0057
rfemur -33.5602 5.86971 13.7584
rtibia 31.3195
rfoot -14.7401 -20.3493
rtoes -8.93709
lfemur 3.37682 -6.18894 -31.9181
ltibia 11.5852
lfoot -11.0214 4.76988
ltoes -12.9546
2856
root 0.519673 15.748 -2.51653 5081.5 -99.2866 -5075.75
lowerback 2.64135 1.07942 -8.43832
upperback -2.00967 1.05843 -0.0682549
thorax -3.73911 0.734369 4.60085
lowerneck -15.8247 2.04928 1.92945
upperneck 18.8446 3.2677 -4.91696
head 8.6065 1.09965 -1.59606
rclavicle -6.36111e-015 -1.07344e-014
rhumerus -43.7159 -33.4177 -63.7363
rradius 11.3071
rwrist 35.6458
rhand -27.7549 -17.4247
rfingers 7.12502
rthumb -1.14923 -47.4014
lclavicle -6.36111e-015 -1.07344e-014
lhumerus -20.222 -9.76767 89.8343
lradius 36.625
lwrist 12.0446
lhand -33.3497 15.0724
lfingers 7.12502
lthumb -6.55183 44.951
rfemur -33.5779 6.77299 13.4281
rtibia 29.2687
rfoot -14.4329 -20.2106
rtoes -9.77283
lfemur 4.58053 -6.02633 -31.8789
ltibia 10.1121
lfoot -10.2853 4.21511
ltoes -13.7135
2857
root 0.533791 15.7589 -2.53402 5082.31 -99.1678 -5076.43
lowerback 2.54683 1.03216 -8.46319
upperback -2.00617 1.00528 -0.0331065
thorax -3.67549 0.70657 4.65641
lowerneck -15.8123 2.04701 1.89467
upperneck 18.8181 3.27959 -4.95151
head 8.5959 1.0996 -1.60042
rclavicle -1.03368e-014 8.74653e-015
rhumerus -45.1099 -35.2328 -61.2876
rradius 10.7883
rwrist 38.484
rhand -27.7079 -17.329
rfingers 7.12502
rthumb -1.10377 -47.3059
lclavicle -1.03368e-014 8.74653e-015
lhumerus -19.8529 -9.96033 89.7668
lradius 37.5493
lwrist 12.2015
lhand -33.3435 15.2207
lfingers 7.12502
lthumb -6.54588 45.0996
rfemur -33.6021 7.9219 12.9628
rtibia 27.4087
rfoot -14.4639 -20.3724
rtoes -10.7589
lfemur 5.79414 -6.01036 -31.854
ltibia 8.61856
lfoot -9.499 3.79753
ltoes -14.2735
2858
root 0.537963 15.7725 -2.55391 5083 -99.0874 -5077.09
lowerback 2.41523 1.02716 -8.4675
upperback -1.95942 1.01396 -0.0320668
thorax -3.55311 0.704718 4.6616
lowerneck -15.8572 2.02193 1.85418
upperneck 18.8632 3.2525 -4.93294
head 8.61734 1.08444 -1.59081
rclavicle -1.59028e-014 4.37326e-015
rhumerus -46.6341 -37.067 -58.7836
rradius 10.3964
rwrist 41.2174
rhand -27.569 -17.462
rfingers 7.12502
rthumb -0.969623 -47.4395
lclavicle -1.59028e-014 4.37326e-015
lhumerus -19.5526 -10.2555 89.7203
lradius 38.5024
lwrist 12.706
lhand -33.1916 15.6131
lfingers 7.12502
lthumb -6.39915 45.4964
rfemur -33.537 8.95673 12.5401
rtibia 25.8435
rfoot -15.0705 -20.3845
rtoes -11.5557
lfemur 7.26172 -5.94326 -31.8463
ltibia 6.93222
lfoot -8.65236 3.34442
ltoes -14.9083
